<svg width="24" height="28" viewBox="0 0 24 28" fill="none" xmlns="http://www.w3.org/2000/svg">
<path d="M10.5742 23.5342H12.6077V21.825C13.576 21.6199 14.4088 21.1756 15.106 20.4919C15.8032 19.8082 16.1518 18.7942 16.1518 17.4496C16.1518 16.4925 15.9194 15.6152 15.4546 14.8176C14.9898 14.02 14.0602 13.3249 12.6658 12.7324C11.5038 12.2766 10.7001 11.8778 10.2547 11.536C9.80923 11.1942 9.58651 10.727 9.58651 10.1345C9.58651 9.542 9.76565 9.07484 10.1239 8.73301C10.4822 8.39118 11.0003 8.22027 11.6781 8.22027C12.2978 8.22027 12.782 8.39688 13.1306 8.7501C13.4792 9.10332 13.731 9.542 13.8859 10.0661L15.7451 9.17739C15.5321 8.37979 15.1399 7.68474 14.5686 7.09224C13.9973 6.49973 13.363 6.1693 12.6658 6.10093V4.39179H10.6323V6.10093C9.66398 6.35161 8.90868 6.85296 8.36641 7.60498C7.82414 8.357 7.55301 9.20018 7.55301 10.1345C7.55301 11.2056 7.8193 12.0715 8.35188 12.7324C8.88447 13.3933 9.72208 13.963 10.8647 14.4415C12.0848 14.9657 12.9321 15.4328 13.4066 15.843C13.8811 16.2532 14.1183 16.7888 14.1183 17.4496C14.1183 18.2017 13.8908 18.7543 13.4356 19.1075C12.9805 19.4607 12.4334 19.6373 11.7943 19.6373C11.1552 19.6373 10.5887 19.4037 10.0949 18.9366C9.60104 18.4694 9.23791 17.7687 9.00551 16.8343L7.08821 17.7231C7.35934 18.8169 7.78057 19.7 8.35188 20.3723C8.9232 21.0445 9.66398 21.506 10.5742 21.7567V23.5342ZM11.62 27.6361C10.0126 27.6361 8.50198 27.2772 7.08821 26.5593C5.67444 25.8415 4.44466 24.8673 3.39885 23.6367C2.35305 22.4061 1.52513 20.9591 0.915076 19.2955C0.305025 17.6319 0 15.8544 0 13.963C0 12.0715 0.305025 10.294 0.915076 8.63046C1.52513 6.9669 2.35305 5.51983 3.39885 4.28925C4.44466 3.05866 5.67444 2.08445 7.08821 1.36661C8.50198 0.648775 10.0126 0.289856 11.62 0.289856C13.2274 0.289856 14.7381 0.648775 16.1518 1.36661C17.5656 2.08445 18.7954 3.05866 19.8412 4.28925C20.887 5.51983 21.7149 6.9669 22.325 8.63046C22.935 10.294 23.24 12.0715 23.24 13.963C23.24 15.8544 22.935 17.6319 22.325 19.2955C21.7149 20.9591 20.887 22.4061 19.8412 23.6367C18.7954 24.8673 17.5656 25.8415 16.1518 26.5593C14.7381 27.2772 13.2274 27.6361 11.62 27.6361Z" fill="white"/>
</svg>
